<?xml version="1.0" encoding="UTF-8" standalone="no"?>
<svg
   width="2500"
   height="1e3"
   preserveAspectRatio="xMidYMid"
   version="1.0"
   viewBox="0 258 1874.9 234"
   zoomAndPan="magnify"
   id="svg81"
   sodipodi:docname="Logo_and_Name_Horizontal.svg"
   inkscape:version="1.4.3 (0d15f75, 2025-12-25)"
   xmlns:inkscape="http://www.inkscape.org/namespaces/inkscape"
   xmlns:sodipodi="http://sodipodi.sourceforge.net/DTD/sodipodi-0.dtd"
   xmlns="http://www.w3.org/2000/svg"
   xmlns:svg="http://www.w3.org/2000/svg">
  <sodipodi:namedview
     id="namedview81"
     pagecolor="#ffffff"
     bordercolor="#000000"
     borderopacity="0.25"
     inkscape:showpageshadow="2"
     inkscape:pageopacity="0.0"
     inkscape:pagecheckerboard="0"
     inkscape:deskcolor="#d1d1d1"
     inkscape:zoom="0.3546"
     inkscape:cx="1010.9983"
     inkscape:cy="586.57642"
     inkscape:window-width="1920"
     inkscape:window-height="1001"
     inkscape:window-x="-9"
     inkscape:window-y="1341"
     inkscape:window-maximized="1"
     inkscape:current-layer="svg81" />
  <defs
     id="defs31">
    <clipPath
       id="n">
      <path
         d="m5 92h40v118h-40z"
         id="path2" />
    </clipPath>
    <clipPath
       id="a">
      <path
         d="m20.301 89.734 34.594 5.1758-17.527 117.2-34.594-5.1758z"
         id="path3" />
    </clipPath>
    <clipPath
       id="r">
      <path
         d="m44.215 100.44-4.168 92.508c-0.22266 4.9219-2.5195 9.5195-6.3242 12.652-3.8047 3.1289-8.7578 4.5-13.633 3.7734-4.8711-0.73047-9.207-3.4922-11.93-7.5977-2.7188-4.1055-3.5742-9.1758-2.3438-13.945l23.082-89.684c0.99219-3.8633 4.7461-6.3477 8.6914-5.7578 3.9414 0.58984 6.8047 4.0664 6.625 8.0508z"
         id="path4" />
    </clipPath>
    <clipPath
       id="f">
      <path
         d="m0 0h39.551v118h-39.551z"
         id="path5" />
    </clipPath>
    <clipPath
       id="z">
      <path
         d="m15.301-2.2656 34.594 5.1758-17.527 117.2-34.594-5.1758z"
         id="path6" />
    </clipPath>
    <clipPath
       id="g">
      <path
         d="m39.215 8.4414-4.168 92.508c-0.22266 4.9219-2.5195 9.5195-6.3242 12.652-3.8047 3.1289-8.7578 4.5-13.633 3.7734-4.8711-0.73047-9.207-3.4922-11.93-7.5977-2.7188-4.1055-3.5742-9.1758-2.3438-13.945l23.082-89.684c0.99219-3.8633 4.7461-6.3477 8.6914-5.7578 3.9414 0.58984 6.8047 4.0664 6.625 8.0508z"
         id="path7" />
    </clipPath>
    <clipPath
       id="ab">
      <rect
         width="40"
         height="118"
         id="rect7" />
    </clipPath>
    <clipPath
       id="x">
      <path
         d="m217 92h41v118h-41z"
         id="path8" />
    </clipPath>
    <clipPath
       id="d">
      <path
         d="m207.04 95.094 34.547-5.4805 18.574 117.04-34.547 5.4805z"
         id="path9" />
    </clipPath>
    <clipPath
       id="ag">
      <path
         d="m233.06 98.102 23.883 89.473c1.2695 4.7617 0.46094 9.8359-2.2226 13.969-2.6836 4.1289-6.9961 6.9297-11.863 7.7031-4.8633 0.76953-9.8281-0.55468-13.66-3.6523s-6.1719-7.6758-6.4375-12.594l-4.9961-92.469c-0.21484-3.9844 2.6133-7.4844 6.5547-8.1094 3.9375-0.625 7.7148 1.8281 8.7422 5.6797z"
         id="path10" />
    </clipPath>
    <clipPath
       id="b">
      <path
         d="m0.33984 0h40.66v118h-40.66z"
         id="path11" />
    </clipPath>
    <clipPath
       id="t">
      <path
         d="m-9.9648 3.0938 34.547-5.4805 18.574 117.04-34.547 5.4805z"
         id="path12" />
    </clipPath>
    <clipPath
       id="ak">
      <path
         d="m16.062 6.1016 23.883 89.473c1.2695 4.7617 0.46094 9.8359-2.2227 13.969-2.6836 4.1289-6.9961 6.9297-11.863 7.7031-4.8633 0.76954-9.8281-0.55468-13.66-3.6523s-6.1719-7.6758-6.4375-12.594l-4.9961-92.469c-0.21484-3.9844 2.6133-7.4844 6.5547-8.1094 3.9375-0.625 7.7148 1.8281 8.7422 5.6797z"
         id="path13" />
    </clipPath>
    <clipPath
       id="aa">
      <rect
         width="41"
         height="118"
         id="rect13" />
    </clipPath>
    <clipPath
       id="l">
      <path
         d="m72 2h36v147h-36z"
         id="path14" />
    </clipPath>
    <clipPath
       id="ad">
      <path
         d="m96.863 150.46-35.457-2.957 12.191-146.19 35.457 2.9531z"
         id="path15" />
    </clipPath>
    <clipPath
       id="v">
      <path
         d="m72.977 142.2-0.76172-121.71c-0.03125-4.9531 2.0195-9.6914 5.6562-13.055 3.6328-3.3672 8.5156-5.0508 13.453-4.6367 4.9375 0.41016 9.4727 2.8789 12.5 6.8008 3.0273 3.918 4.2656 8.9336 3.418 13.812l-20.91 119.9c-0.59766 3.4336-3.7148 5.8398-7.1875 5.5508-3.4688-0.28906-6.1445-3.1797-6.168-6.6641z"
         id="path16" />
    </clipPath>
    <clipPath
       id="h">
      <path
         d="m0.14844 0.16797h35.852v146.83h-35.852z"
         id="path17" />
    </clipPath>
    <clipPath
       id="j">
      <path
         d="m24.863 148.46-35.457-2.957 12.191-146.19 35.457 2.9531z"
         id="path18" />
    </clipPath>
    <clipPath
       id="ai">
      <path
         d="m0.97656 140.2-0.76172-121.71c-0.03125-4.9531 2.0195-9.6914 5.6562-13.055 3.6328-3.3672 8.5156-5.0508 13.453-4.6367 4.9375 0.41016 9.4727 2.8789 12.5 6.8008 3.0273 3.918 4.2656 8.9336 3.418 13.812l-20.91 119.9c-0.59766 3.4336-3.7148 5.8398-7.1875 5.5508-3.4688-0.28906-6.1445-3.1797-6.168-6.6641z"
         id="path19" />
    </clipPath>
    <clipPath
       id="ah">
      <rect
         width="36"
         height="147"
         id="rect19" />
    </clipPath>
    <clipPath
       id="k">
      <path
         d="m154 2h36v147h-36z"
         id="path20" />
    </clipPath>
    <clipPath
       id="y">
      <path
         d="m200.78 147.47-35.453 3.0078-12.406-146.17 35.453-3.0078z"
         id="path21" />
    </clipPath>
    <clipPath
       id="m">
      <path
         d="m175.85 143.32-21.086-119.87c-0.85937-4.8789 0.3711-9.8945 3.3945-13.82 3.0195-3.9219 7.5547-6.3984 12.488-6.8164 4.9375-0.41797 9.8203 1.2539 13.461 4.6172 3.6406 3.3594 5.6992 8.0938 5.6758 13.047l-0.58204 121.71c-0.0156 3.4805-2.6875 6.375-6.1602 6.668-3.4688 0.29688-6.5898-2.1055-7.1914-5.5352z"
         id="path22" />
    </clipPath>
    <clipPath
       id="e">
      <path
         d="m0 0.16797h35.98v146.83h-35.98z"
         id="path23" />
    </clipPath>
    <clipPath
       id="ac">
      <path
         d="m46.781 145.47-35.453 3.0078-12.406-146.17 35.453-3.0078z"
         id="path24" />
    </clipPath>
    <clipPath
       id="q">
      <path
         d="m21.852 141.32-21.086-119.87c-0.85938-4.8789 0.37109-9.8945 3.3945-13.82 3.0195-3.9219 7.5547-6.3984 12.488-6.8164 4.9375-0.41797 9.8203 1.2539 13.461 4.6172 3.6406 3.3594 5.6992 8.0938 5.6758 13.047l-0.58203 121.71c-0.01563 3.4805-2.6875 6.375-6.1602 6.668-3.4688 0.29688-6.5898-2.1055-7.1914-5.5352z"
         id="path25" />
    </clipPath>
    <clipPath
       id="i">
      <rect
         width="36"
         height="147"
         id="rect25" />
    </clipPath>
    <clipPath
       id="ae">
      <path
         d="m113.35 70.91h35.582v161.93h-35.582z"
         id="path26" />
    </clipPath>
    <clipPath
       id="aj">
      <path
         d="m137.39 76.746 11.441 136.81c0.41407 4.9492-1.2617 9.8438-4.625 13.496-3.3594 3.6562-8.0976 5.7344-13.062 5.7344-4.9687 0-9.707-2.0781-13.066-5.7344-3.3633-3.6523-5.0391-8.5469-4.625-13.496l11.441-136.81c0.26953-3.25 2.9883-5.75 6.25-5.75 3.2578 0 5.9766 2.5 6.2461 5.75z"
         id="path27" />
    </clipPath>
    <clipPath
       id="p">
      <path
         d="m0.34766 0.91016h35.582v161.88h-35.582z"
         id="path28" />
    </clipPath>
    <clipPath
       id="c">
      <path
         d="m24.387 6.7461 11.441 136.81c0.41406 4.9492-1.2617 9.8438-4.625 13.496-3.3594 3.6562-8.0977 5.7344-13.062 5.7344-4.9688 0-9.707-2.0781-13.066-5.7344-3.3633-3.6523-5.0391-8.5469-4.625-13.496l11.441-136.81c0.26953-3.25 2.9883-5.75 6.25-5.75 3.2578 0 5.9766 2.5 6.2461 5.75z"
         id="path29" />
    </clipPath>
    <clipPath
       id="o">
      <rect
         width="36"
         height="163"
         id="rect29" />
    </clipPath>
    <clipPath
       id="w">
      <rect
         width="263"
         height="234"
         id="rect30" />
    </clipPath>
    <clipPath
       id="af">
      <path
         d="m505 284h1369.8v180h-1369.8z"
         id="path30" />
    </clipPath>
    <clipPath
       id="s">
      <rect
         width="1370"
         height="180"
         id="rect31" />
    </clipPath>
  </defs>
  <g
     transform="translate(125.83 258)"
     id="g72">
    <g
       clip-path="url(#w)"
       id="g71">
      <g
         clip-path="url(#n)"
         id="g40">
        <g
           clip-path="url(#a)"
           id="g39">
          <g
             clip-path="url(#r)"
             id="g38">
            <g
               transform="translate(5,92)"
               id="g37">
              <g
                 clip-path="url(#ab)"
                 id="g36">
                <g
                   clip-path="url(#f)"
                   id="g35">
                  <g
                     clip-path="url(#z)"
                     id="g34">
                    <g
                       clip-path="url(#g)"
                       id="g33">
                      <path
                         d="m23.504-69.336 38.172 5.7109-27.543 184.15-38.172-5.707z"
                         id="path33" />
                    </g>
                  </g>
                </g>
              </g>
            </g>
          </g>
        </g>
      </g>
      <g
         clip-path="url(#x)"
         id="g48">
        <g
           clip-path="url(#d)"
           id="g47">
          <g
             clip-path="url(#ag)"
             id="g46">
            <g
               transform="translate(217,92)"
               id="g45">
              <g
                 clip-path="url(#aa)"
                 id="g44">
                <g
                   clip-path="url(#b)"
                   id="g43">
                  <g
                     clip-path="url(#t)"
                     id="g42">
                    <g
                       clip-path="url(#ak)"
                       id="g41">
                      <path
                         d="m-22.34-63.332 38.121-6.0469 29.188 183.89-38.121 6.0508z"
                         id="path40" />
                    </g>
                  </g>
                </g>
              </g>
            </g>
          </g>
        </g>
      </g>
      <g
         clip-path="url(#l)"
         id="g56">
        <g
           clip-path="url(#ad)"
           id="g55">
          <g
             clip-path="url(#v)"
             id="g54">
            <g
               transform="translate(72,2)"
               id="g53">
              <g
                 clip-path="url(#ah)"
                 id="g52">
                <g
                   clip-path="url(#h)"
                   id="g51">
                  <g
                     clip-path="url(#j)"
                     id="g50">
                    <g
                       clip-path="url(#ai)"
                       id="g49">
                      <path
                         d="m20.68 216.8-38.461-3.207 17.914-214.85 38.461 3.207z"
                         id="path48" />
                    </g>
                  </g>
                </g>
              </g>
            </g>
          </g>
        </g>
      </g>
      <g
         clip-path="url(#k)"
         id="g64">
        <g
           clip-path="url(#y)"
           id="g63">
          <g
             clip-path="url(#m)"
             id="g62">
            <g
               transform="translate(154,2)"
               id="g61">
              <g
                 clip-path="url(#i)"
                 id="g60">
                <g
                   clip-path="url(#e)"
                   id="g59">
                  <g
                     clip-path="url(#ac)"
                     id="g58">
                    <g
                       clip-path="url(#q)"
                       id="g57">
                      <path
                         d="m54.07 213.54-38.457 3.2656-18.23-214.82 38.457-3.2656z"
                         id="path56" />
                    </g>
                  </g>
                </g>
              </g>
            </g>
          </g>
        </g>
      </g>
      <g
         clip-path="url(#ae)"
         id="g70">
        <g
           clip-path="url(#aj)"
           id="g69">
          <g
             transform="translate(113,70)"
             id="g68">
            <g
               clip-path="url(#o)"
               id="g67">
              <g
                 clip-path="url(#p)"
                 id="g66">
                <g
                   clip-path="url(#c)"
                   id="g65">
                  <rect
                     x="-905.46"
                     y="-601"
                     width="3239.8"
                     height="1296"
                     id="rect64" />
                </g>
              </g>
            </g>
          </g>
        </g>
      </g>
    </g>
  </g>
  <g
     clip-path="url(#af)"
     id="g81">
    <g
       transform="translate(505,284)"
       id="g80">
      <g
         clip-path="url(#s)"
         id="g79">
        <g
           id="g78">
          <g
             transform="translate(1.338 158.39)"
             id="g73">
            <path
               d="m9.75-136.41c0-13 6.4922-19.5 19.484-19.5h68.203c12.988 0 19.484 6.5 19.484 19.5v136.41h-19.484v-136.41h-68.203v136.41h-19.484zm38.969 97.438v-19.5h29.234v19.5z"
               id="path72" />
          </g>
          <g
             transform="translate(283.9 158.39)"
             id="g74">
            <path
               d="m116.92-155.91v155.91h-19.484v-155.91zm-107.17 155.91v-155.91h19.484v155.91zm38.969-38.969v-19.5h29.234v19.5z"
               id="path73" />
          </g>
          <g
             transform="translate(566.47 158.39)"
             id="g75">
            <path
               d="m9.75-136.41c0-13 6.4922-19.5 19.484-19.5h68.203c12.988 0 19.484 6.5 19.484 19.5v136.41h-19.484v-136.41h-68.203v136.41h-19.484zm38.969 97.438v-19.5h29.234v19.5z"
               id="path74" />
          </g>
          <g
             transform="translate(849.03 158.39)"
             id="g76">
            <path
               d="m68.203-116.92v116.92h-19.484v-116.92zm-58.453-19.484v-19.5h97.438v19.5z"
               id="path75" />
          </g>
          <g
             transform="translate(1121.9 158.39)"
             id="g77">
            <path
               d="m9.75-136.41c0-13 6.4922-19.5 19.484-19.5h68.203c12.988 0 19.484 6.5 19.484 19.5v136.41h-19.484v-136.41h-68.203v136.41h-19.484zm38.969 97.438v-19.5h29.234v19.5z"
               id="path76" />
          </g>
        </g>
      </g>
    </g>
  </g>
</svg>
