<svg width="2500" height="1e3" preserveAspectRatio="xMidYMid" version="1.0" viewBox="0 0 1874.9 750" xmlns="http://www.w3.org/2000/svg" zoomAndPan="magnify"><defs><clipPath id="u"><path d="m0 0.023438h1874.8v749.95h-1874.8z"/></clipPath><clipPath id="n"><path d="m5 92h40v118h-40z"/></clipPath><clipPath id="a"><path d="m20.301 89.734 34.594 5.1758-17.527 117.2-34.594-5.1758z"/></clipPath><clipPath id="r"><path d="m44.215 100.44-4.168 92.508c-0.22266 4.9219-2.5195 9.5195-6.3242 12.652-3.8047 3.1289-8.7578 4.5-13.633 3.7734-4.8711-0.73047-9.207-3.4922-11.93-7.5977-2.7188-4.1055-3.5742-9.1758-2.3438-13.945l23.082-89.684c0.99219-3.8633 4.7461-6.3477 8.6914-5.7578 3.9414 0.58984 6.8047 4.0664 6.625 8.0508z"/></clipPath><clipPath id="f"><path d="m0 0h39.551v118h-39.551z"/></clipPath><clipPath id="z"><path d="m15.301-2.2656 34.594 5.1758-17.527 117.2-34.594-5.1758z"/></clipPath><clipPath id="g"><path d="m39.215 8.4414-4.168 92.508c-0.22266 4.9219-2.5195 9.5195-6.3242 12.652-3.8047 3.1289-8.7578 4.5-13.633 3.7734-4.8711-0.73047-9.207-3.4922-11.93-7.5977-2.7188-4.1055-3.5742-9.1758-2.3438-13.945l23.082-89.684c0.99219-3.8633 4.7461-6.3477 8.6914-5.7578 3.9414 0.58984 6.8047 4.0664 6.625 8.0508z"/></clipPath><clipPath id="ab"><rect width="40" height="118"/></clipPath><clipPath id="x"><path d="m217 92h41v118h-41z"/></clipPath><clipPath id="d"><path d="m207.04 95.094 34.547-5.4805 18.574 117.04-34.547 5.4805z"/></clipPath><clipPath id="ag"><path d="m233.06 98.102 23.883 89.473c1.2695 4.7617 0.46094 9.8359-2.2226 13.969-2.6836 4.1289-6.9961 6.9297-11.863 7.7031-4.8633 0.76953-9.8281-0.55468-13.66-3.6523s-6.1719-7.6758-6.4375-12.594l-4.9961-92.469c-0.21484-3.9844 2.6133-7.4844 6.5547-8.1094 3.9375-0.625 7.7148 1.8281 8.7422 5.6797z"/></clipPath><clipPath id="b"><path d="m0.33984 0h40.66v118h-40.66z"/></clipPath><clipPath id="t"><path d="m-9.9648 3.0938 34.547-5.4805 18.574 117.04-34.547 5.4805z"/></clipPath><clipPath id="ak"><path d="m16.062 6.1016 23.883 89.473c1.2695 4.7617 0.46094 9.8359-2.2227 13.969-2.6836 4.1289-6.9961 6.9297-11.863 7.7031-4.8633 0.76954-9.8281-0.55468-13.66-3.6523s-6.1719-7.6758-6.4375-12.594l-4.9961-92.469c-0.21484-3.9844 2.6133-7.4844 6.5547-8.1094 3.9375-0.625 7.7148 1.8281 8.7422 5.6797z"/></clipPath><clipPath id="aa"><rect width="41" height="118"/></clipPath><clipPath id="l"><path d="m72 2h36v147h-36z"/></clipPath><clipPath id="ad"><path d="m96.863 150.46-35.457-2.957 12.191-146.19 35.457 2.9531z"/></clipPath><clipPath id="v"><path d="m72.977 142.2-0.76172-121.71c-0.03125-4.9531 2.0195-9.6914 5.6562-13.055 3.6328-3.3672 8.5156-5.0508 13.453-4.6367 4.9375 0.41016 9.4727 2.8789 12.5 6.8008 3.0273 3.918 4.2656 8.9336 3.418 13.812l-20.91 119.9c-0.59766 3.4336-3.7148 5.8398-7.1875 5.5508-3.4688-0.28906-6.1445-3.1797-6.168-6.6641z"/></clipPath><clipPath id="h"><path d="m0.14844 0.16797h35.852v146.83h-35.852z"/></clipPath><clipPath id="j"><path d="m24.863 148.46-35.457-2.957 12.191-146.19 35.457 2.9531z"/></clipPath><clipPath id="ai"><path d="m0.97656 140.2-0.76172-121.71c-0.03125-4.9531 2.0195-9.6914 5.6562-13.055 3.6328-3.3672 8.5156-5.0508 13.453-4.6367 4.9375 0.41016 9.4727 2.8789 12.5 6.8008 3.0273 3.918 4.2656 8.9336 3.418 13.812l-20.91 119.9c-0.59766 3.4336-3.7148 5.8398-7.1875 5.5508-3.4688-0.28906-6.1445-3.1797-6.168-6.6641z"/></clipPath><clipPath id="ah"><rect width="36" height="147"/></clipPath><clipPath id="k"><path d="m154 2h36v147h-36z"/></clipPath><clipPath id="y"><path d="m200.78 147.47-35.453 3.0078-12.406-146.17 35.453-3.0078z"/></clipPath><clipPath id="m"><path d="m175.85 143.32-21.086-119.87c-0.85937-4.8789 0.3711-9.8945 3.3945-13.82 3.0195-3.9219 7.5547-6.3984 12.488-6.8164 4.9375-0.41797 9.8203 1.2539 13.461 4.6172 3.6406 3.3594 5.6992 8.0938 5.6758 13.047l-0.58204 121.71c-0.0156 3.4805-2.6875 6.375-6.1602 6.668-3.4688 0.29688-6.5898-2.1055-7.1914-5.5352z"/></clipPath><clipPath id="e"><path d="m0 0.16797h35.98v146.83h-35.98z"/></clipPath><clipPath id="ac"><path d="m46.781 145.47-35.453 3.0078-12.406-146.17 35.453-3.0078z"/></clipPath><clipPath id="q"><path d="m21.852 141.32-21.086-119.87c-0.85938-4.8789 0.37109-9.8945 3.3945-13.82 3.0195-3.9219 7.5547-6.3984 12.488-6.8164 4.9375-0.41797 9.8203 1.2539 13.461 4.6172 3.6406 3.3594 5.6992 8.0938 5.6758 13.047l-0.58203 121.71c-0.01563 3.4805-2.6875 6.375-6.1602 6.668-3.4688 0.29688-6.5898-2.1055-7.1914-5.5352z"/></clipPath><clipPath id="i"><rect width="36" height="147"/></clipPath><clipPath id="ae"><path d="m113.35 70.91h35.582v161.93h-35.582z"/></clipPath><clipPath id="aj"><path d="m137.39 76.746 11.441 136.81c0.41407 4.9492-1.2617 9.8438-4.625 13.496-3.3594 3.6562-8.0976 5.7344-13.062 5.7344-4.9687 0-9.707-2.0781-13.066-5.7344-3.3633-3.6523-5.0391-8.5469-4.625-13.496l11.441-136.81c0.26953-3.25 2.9883-5.75 6.25-5.75 3.2578 0 5.9766 2.5 6.2461 5.75z"/></clipPath><clipPath id="p"><path d="m0.34766 0.91016h35.582v161.88h-35.582z"/></clipPath><clipPath id="c"><path d="m24.387 6.7461 11.441 136.81c0.41406 4.9492-1.2617 9.8438-4.625 13.496-3.3594 3.6562-8.0977 5.7344-13.062 5.7344-4.9688 0-9.707-2.0781-13.066-5.7344-3.3633-3.6523-5.0391-8.5469-4.625-13.496l11.441-136.81c0.26953-3.25 2.9883-5.75 6.25-5.75 3.2578 0 5.9766 2.5 6.2461 5.75z"/></clipPath><clipPath id="o"><rect width="36" height="163"/></clipPath><clipPath id="w"><rect width="263" height="234"/></clipPath><clipPath id="af"><path d="m505 284h1369.8v180h-1369.8z"/></clipPath><clipPath id="s"><rect width="1370" height="180"/></clipPath></defs><g clip-path="url(#u)" fill="#fff"><path d="m0 0.023438h1874.9v749.95h-1874.9z"/><path d="m0 0.023438h1874.9v749.95h-1874.9z"/></g><g transform="translate(125.83 258)"><g clip-path="url(#w)"><g clip-path="url(#n)"><g clip-path="url(#a)"><g clip-path="url(#r)"><g transform="translate(5,92)"><g clip-path="url(#ab)"><g clip-path="url(#f)"><g clip-path="url(#z)"><g clip-path="url(#g)"><path d="m23.504-69.336 38.172 5.7109-27.543 184.15-38.172-5.707z"/></g></g></g></g></g></g></g></g><g clip-path="url(#x)"><g clip-path="url(#d)"><g clip-path="url(#ag)"><g transform="translate(217,92)"><g clip-path="url(#aa)"><g clip-path="url(#b)"><g clip-path="url(#t)"><g clip-path="url(#ak)"><path d="m-22.34-63.332 38.121-6.0469 29.188 183.89-38.121 6.0508z"/></g></g></g></g></g></g></g></g><g clip-path="url(#l)"><g clip-path="url(#ad)"><g clip-path="url(#v)"><g transform="translate(72,2)"><g clip-path="url(#ah)"><g clip-path="url(#h)"><g clip-path="url(#j)"><g clip-path="url(#ai)"><path d="m20.68 216.8-38.461-3.207 17.914-214.85 38.461 3.207z"/></g></g></g></g></g></g></g></g><g clip-path="url(#k)"><g clip-path="url(#y)"><g clip-path="url(#m)"><g transform="translate(154,2)"><g clip-path="url(#i)"><g clip-path="url(#e)"><g clip-path="url(#ac)"><g clip-path="url(#q)"><path d="m54.07 213.54-38.457 3.2656-18.23-214.82 38.457-3.2656z"/></g></g></g></g></g></g></g></g><g clip-path="url(#ae)"><g clip-path="url(#aj)"><g transform="translate(113,70)"><g clip-path="url(#o)"><g clip-path="url(#p)"><g clip-path="url(#c)"><rect x="-905.46" y="-601" width="3239.8" height="1296"/></g></g></g></g></g></g></g></g><g clip-path="url(#af)"><g transform="translate(505,284)"><g clip-path="url(#s)"><g><g transform="translate(1.338 158.39)"><path d="m9.75-136.41c0-13 6.4922-19.5 19.484-19.5h68.203c12.988 0 19.484 6.5 19.484 19.5v136.41h-19.484v-136.41h-68.203v136.41h-19.484zm38.969 97.438v-19.5h29.234v19.5z"/></g><g transform="translate(283.9 158.39)"><path d="m116.92-155.91v155.91h-19.484v-155.91zm-107.17 155.91v-155.91h19.484v155.91zm38.969-38.969v-19.5h29.234v19.5z"/></g><g transform="translate(566.47 158.39)"><path d="m9.75-136.41c0-13 6.4922-19.5 19.484-19.5h68.203c12.988 0 19.484 6.5 19.484 19.5v136.41h-19.484v-136.41h-68.203v136.41h-19.484zm38.969 97.438v-19.5h29.234v19.5z"/></g><g transform="translate(849.03 158.39)"><path d="m68.203-116.92v116.92h-19.484v-116.92zm-58.453-19.484v-19.5h97.438v19.5z"/></g><g transform="translate(1121.9 158.39)"><path d="m9.75-136.41c0-13 6.4922-19.5 19.484-19.5h68.203c12.988 0 19.484 6.5 19.484 19.5v136.41h-19.484v-136.41h-68.203v136.41h-19.484zm38.969 97.438v-19.5h29.234v19.5z"/></g></g></g></g></g></svg>
