<svg width="2e3" height="2e3" preserveAspectRatio="xMidYMid" version="1.0" viewBox="0 0 1500 1500" xmlns="http://www.w3.org/2000/svg" zoomAndPan="magnify"><defs><clipPath id="ae"><path d="m17 166h167v669h-167z"/></clipPath><clipPath id="q"><path d="m107.79 155.95 138.02 20.645-99.836 667.52-138.03-20.645z"/></clipPath><clipPath id="r"><path d="m183.39 174.56-26.812 595.11c-0.85937 19.129-9.793 36.992-24.574 49.164-14.785 12.168-34.035 17.496-52.973 14.664l-3.957-0.58984c-18.938-2.832-35.785-13.562-46.363-29.523s-13.891-35.66-9.1172-54.203l148.48-576.92c0.99219-3.8633 4.7461-6.3476 8.6914-5.7578 3.9453 0.58985 6.8047 4.0664 6.625 8.0508z"/></clipPath><clipPath id="v"><path d="m0 0h166.6v669h-166.6z"/></clipPath><clipPath id="ah"><path d="m90.793-10.055 138.02 20.645-99.836 667.52-138.03-20.645z"/></clipPath><clipPath id="s"><path d="m166.39 8.5586-26.812 595.11c-0.85937 19.129-9.793 36.992-24.574 49.164-14.785 12.168-34.035 17.496-52.973 14.664l-3.957-0.58984c-18.938-2.832-35.785-13.562-46.363-29.523s-13.891-35.66-9.1172-54.203l148.48-576.92c0.99219-3.8633 4.7461-6.3477 8.6914-5.7578 3.9453 0.58984 6.8047 4.0664 6.625 8.0508z"/></clipPath><clipPath id="l"><rect width="167" height="669"/></clipPath><clipPath id="t"><path d="m853 166h172v668h-172z"/></clipPath><clipPath id="k"><path d="m791.28 177.61 137.84-21.879 105.8 666.61-137.84 21.879z"/></clipPath><clipPath id="y"><path d="m868.98 172.59 153.63 575.57c4.9375 18.5 1.8008 38.227-8.6328 54.285-10.434 16.055-27.188 26.934-46.098 29.934l-3.9492 0.62891c-18.914 3-38.211-2.1562-53.102-14.191-14.895-12.039-23.984-29.824-25.016-48.945l-32.129-594.85c-0.21485-3.9844 2.6133-7.4844 6.5547-8.1094 3.9375-0.625 7.7148 1.8281 8.7422 5.6797z"/></clipPath><clipPath id="j"><path d="m0.44141 0.16016h171.56v667.84h-171.56z"/></clipPath><clipPath id="b"><path d="m-61.723 11.609 137.84-21.879 105.8 666.61-137.84 21.879z"/></clipPath><clipPath id="a"><path d="m15.977 6.5898 153.63 575.57c4.9375 18.5 1.8008 38.227-8.6328 54.285-10.434 16.055-27.188 26.934-46.098 29.934l-3.9492 0.62891c-18.914 3-38.211-2.1562-53.102-14.191-14.895-12.039-23.984-29.824-25.016-48.945l-32.129-594.85c-0.21484-3.9844 2.6133-7.4844 6.5547-8.1094 3.9375-0.625 7.7148 1.8281 8.7422 5.6797z"/></clipPath><clipPath id="ai"><rect width="172" height="668"/></clipPath><clipPath id="o"><path d="m285 8h142v789h-142z"/></clipPath><clipPath id="e"><path d="m366.34 802.57-141.48-11.797 65.676-787.71 141.48 11.797z"/></clipPath><clipPath id="m"><path d="m289.48 789.41-4.4648-711.83c-0.1211-19.254 7.8555-37.668 21.98-50.746 14.129-13.082 33.102-19.621 52.289-18.02l3.9844 0.33203c19.184 1.5977 36.816 11.191 48.582 26.43 11.766 15.238 16.582 34.719 13.273 53.688l-122.29 701.26c-0.59766 3.4297-3.7148 5.8359-7.1875 5.5469-3.4688-0.28906-6.1445-3.1797-6.168-6.6602z"/></clipPath><clipPath id="g"><path d="m0 0h142v788.4h-142z"/></clipPath><clipPath id="w"><path d="m81.336 794.57-141.48-11.797 65.676-787.71 141.48 11.797z"/></clipPath><clipPath id="ab"><path d="m4.4766 781.41-4.4648-711.83c-0.12109-19.254 7.8555-37.668 21.98-50.746 14.129-13.082 33.102-19.621 52.289-18.02l3.9844 0.33203c19.184 1.5977 36.816 11.191 48.582 26.43 11.766 15.238 16.582 34.719 13.273 53.688l-122.29 701.26c-0.59766 3.4297-3.7148 5.8359-7.1875 5.5469-3.4688-0.28906-6.1445-3.1797-6.168-6.6602z"/></clipPath><clipPath id="x"><rect width="142" height="789"/></clipPath><clipPath id="c"><path d="m613 8h142v789h-142z"/></clipPath><clipPath id="ac"><path d="m815.35 790.6-141.46 12.008-66.844-787.62 141.46-12.004z"/></clipPath><clipPath id="h"><path d="m737.38 790.47-123.33-701.08c-3.332-18.961 1.457-38.449 13.199-53.707 11.742-15.254 29.355-24.871 48.539-26.5l3.9844-0.33984c19.184-1.625 38.168 4.8867 52.316 17.945 14.145 13.059 22.148 31.461 22.059 50.715l-3.4141 711.84c-0.0195 3.4844-2.6914 6.375-6.1602 6.6719-3.4688 0.29297-6.5898-2.1094-7.1953-5.5391z"/></clipPath><clipPath id="z"><path d="m0 0h141.32v788.4h-141.32z"/></clipPath><clipPath id="i"><path d="m202.35 782.6-141.46 12.008-66.844-787.62 141.46-12.004z"/></clipPath><clipPath id="af"><path d="m124.38 782.47-123.33-701.08c-3.332-18.961 1.457-38.449 13.199-53.707 11.742-15.254 29.355-24.871 48.539-26.5l3.9844-0.33984c19.184-1.625 38.168 4.8867 52.316 17.945 14.145 13.059 22.148 31.461 22.059 50.715l-3.4141 711.84c-0.0195 3.4844-2.6914 6.375-6.1602 6.6719-3.4688 0.29297-6.5898-2.1094-7.1953-5.5391z"/></clipPath><clipPath id="f"><rect width="142" height="789"/></clipPath><clipPath id="n"><path d="m449 74.41h142.72v852.41h-142.72z"/></clipPath><clipPath id="ag"><path d="m526.38 80.57 64.5 771.31c1.6055 19.23-4.9141 38.254-17.977 52.453-13.062 14.203-31.48 22.285-50.773 22.285h-4c-19.297 0-37.711-8.082-50.777-22.285-13.062-14.199-19.582-33.223-17.973-52.453l64.5-771.31c0.26953-3.25 2.9883-5.7461 6.25-5.7461 3.2578 0 5.9766 2.4961 6.25 5.7461z"/></clipPath><clipPath id="aa"><path d="m0 0.71875h142.72v852h-142.72z"/></clipPath><clipPath id="ad"><path d="m77.383 6.5703 64.5 771.31c1.6055 19.23-4.9141 38.254-17.977 52.453-13.062 14.203-31.48 22.285-50.773 22.285h-4c-19.297 0-37.711-8.082-50.777-22.285-13.062-14.199-19.582-33.223-17.973-52.453l64.5-771.31c0.26953-3.25 2.9883-5.7461 6.25-5.7461 3.2578 0 5.9766 2.4961 6.25 5.7461z"/></clipPath><clipPath id="p"><rect width="143" height="853"/></clipPath><clipPath id="d"><rect width="1043" height="929"/></clipPath><clipPath id="u"><rect width="1021" height="130"/></clipPath></defs><rect x="-150" y="-150" width="1800" height="1800" fill="#fff"/><rect x="-150" y="-150" width="1800" height="1800" fill="#fff"/><g transform="translate(234,160)"><g clip-path="url(#d)"><g clip-path="url(#ae)"><g clip-path="url(#q)"><g clip-path="url(#r)"><g transform="translate(17,166)"><g clip-path="url(#l)"><g clip-path="url(#v)"><g clip-path="url(#ah)"><g clip-path="url(#s)"><path d="m93.617-77.758 152.3 22.781-109.89 734.75-152.3-22.781z"/></g></g></g></g></g></g></g></g><g clip-path="url(#t)"><g clip-path="url(#k)"><g clip-path="url(#y)"><g transform="translate(853,166)"><g clip-path="url(#ai)"><g clip-path="url(#j)"><g clip-path="url(#b)"><g clip-path="url(#a)"><path d="m-79.414-53.801 152.1-24.141 116.45 733.74-152.09 24.137z"/></g></g></g></g></g></g></g></g><g clip-path="url(#o)"><g clip-path="url(#e)"><g clip-path="url(#m)"><g transform="translate(285,8)"><g clip-path="url(#x)"><g clip-path="url(#g)"><g clip-path="url(#w)"><g clip-path="url(#ab)"><path d="m81.684 862.8-153.47-12.793 71.477-857.26 153.47 12.797z"/></g></g></g></g></g></g></g></g><g clip-path="url(#c)"><g clip-path="url(#ac)"><g clip-path="url(#h)"><g transform="translate(613,8)"><g clip-path="url(#f)"><g clip-path="url(#z)"><g clip-path="url(#i)"><g clip-path="url(#af)"><path d="m214.09 849.82-153.45 13.023-72.746-857.15 153.45-13.023z"/></g></g></g></g></g></g></g></g><g clip-path="url(#n)"><g clip-path="url(#ag)"><g transform="translate(449,74)"><g clip-path="url(#p)"><g clip-path="url(#aa)"><g clip-path="url(#ad)"><rect x="-1229" y="-780" width="2592" height="2592"/></g></g></g></g></g></g></g></g><g transform="translate(302,1200)"><g clip-path="url(#u)"><g><g transform="translate(1.2716 114.58)"><path d="m7.0625-98.906c0-9.4141 4.707-14.125 14.125-14.125h49.453c9.4258 0 14.141 4.7109 14.141 14.125v98.906h-14.141v-98.906h-49.453v98.906h-14.125zm28.266 70.641v-14.125h21.188v14.125z"/></g><g transform="translate(206.15 114.58)"><path d="m84.781-113.03v113.03h-14.141v-113.03zm-77.719 113.03v-113.03h14.125v113.03zm28.266-28.266v-14.125h21.188v14.125z"/></g><g transform="translate(411.02 114.58)"><path d="m7.0625-98.906c0-9.4141 4.707-14.125 14.125-14.125h49.453c9.4258 0 14.141 4.7109 14.141 14.125v98.906h-14.141v-98.906h-49.453v98.906h-14.125zm28.266 70.641v-14.125h21.188v14.125z"/></g><g transform="translate(615.9 114.58)"><path d="m49.453-84.781v84.781h-14.125v-84.781zm-42.391-14.125v-14.125h70.656v14.125z"/></g><g transform="translate(813.71 114.58)"><path d="m7.0625-98.906c0-9.4141 4.707-14.125 14.125-14.125h49.453c9.4258 0 14.141 4.7109 14.141 14.125v98.906h-14.141v-98.906h-49.453v98.906h-14.125zm28.266 70.641v-14.125h21.188v14.125z"/></g></g></g></g></svg>
