<svg xmlns="http://www.w3.org/2000/svg" viewBox="0 0 24 24" width="24" height="24">
  
  <path d="M20 4 L21.2 5.2 L13.6 12.8 L12.4 11.6 Z" fill="none" stroke="#1c1c1d" stroke-width="1" stroke-linecap="round" stroke-linejoin="round"/>
  <path d="M11.7 11.7 L13.7 13.7 L13 14.4 L11 12.4 Z" fill="none" stroke="#1c1c1d" stroke-width="1" stroke-linecap="round" stroke-linejoin="round"/>
  <path d="M11 12.4 L13 14.4 L11.7 16.2 C 10.6 17.5, 9.4 17, 9.4 15.6 C 9.4 14.4, 10.1 13.2, 11 12.4 Z" fill="none" stroke="#1c1c1d" stroke-width="1" stroke-linecap="round" stroke-linejoin="round"/>
  <circle cx="8.4" cy="18.2" r="1.1" fill="#1c1c1d"/>
  <path d="M4 20 L8 16 L10.4 18.4 L7.5 21.3 C 6.8 22, 5.6 22, 4.9 21.3 L4 20.4 C 3.8 20.2, 3.8 20.2, 4 20 Z" fill="none" stroke="#1c1c1d" stroke-width="1" stroke-linecap="round" stroke-linejoin="round"/>
</svg>